<svg xmlns="http://www.w3.org/2000/svg" viewBox="0 0 288.28 473.92"><defs><style>.cls-1{fill:#d5d9db;}.cls-1,.cls-5{stroke:#d7d8d8;stroke-width:0.56px;}.cls-1,.cls-5,.cls-6{stroke-miterlimit:10;}.cls-2{fill:#e1e3e5;}.cls-3{fill:#fefefe;}.cls-4{fill:#e0e8ed;}.cls-5,.cls-6{fill:#fff;}.cls-5{opacity:0.6;}.cls-6{stroke:#cdcdcd;stroke-width:1.69px;}.cls-7{fill:none;}</style></defs><title>trello-board-02</title><g id="Layer_2" data-name="Layer 2"><g id="GRID_Rectangle_4_Group_3_Group_1_Layer_3_Rectangle_1_copy_2_left_ESCOLHER_A_LISTA_DE_TAREFAS_Rectangle_1_copy_3_Rectangle_1_copy_4_Ellipse_1_Rectangle_1_copy_5_Rectangle_1_copy_10_" data-name="GRID + Rectangle 4 + Group 3 + Group 1 + Layer 3 + Rectangle 1 copy 2 + left + ESCOLHER A LISTA DE TAREFAS + Rectangle 1 copy 3 + Rectangle 1 copy 4 + Ellipse 1 + Rectangle 1 copy 5 + Rectangle 1 copy 10 "><path class="cls-1" d="M.55.28H288a0,0,0,0,1,0,0V469.14a4.5,4.5,0,0,1-4.5,4.5H5.05a4.5,4.5,0,0,1-4.5-4.5V.28a0,0,0,0,1,0,0Z"/><path class="cls-2" d="M0,.29H.55c0,167.92,0,297.71,0,465.63,0,1,.3,2.08-.55,2.94Z"/><path class="cls-3" d="M282.35,291.69q0,56.81,0,113.62c0,3.57-.92,4.48-4.51,4.48H10.14c-3.59,0-4.51-.91-4.51-4.48q0-56.81,0-113.62a3.67,3.67,0,0,1,2.77-1.16q1.55,0,3.09,0,132.49,0,265,0C278.49,290.52,280.67,289.94,282.35,291.69Z"/><path class="cls-3" d="M143.92,98.16H277.18c4.53,0,5.19.66,5.19,5.21q0,51,0,102.06c0,4.57-.65,5.23-5.16,5.23H10.67c-4.34,0-5-.71-5-5.07q0-51.17,0-102.34c0-4.37.71-5.09,5-5.09Z"/><path class="cls-4" d="M282.35,291.69l-136.95,0-139.76,0q0-34.44,0-68.87c0-3.48.8-4.27,4.33-4.27H278.44c3.3,0,3.93.67,3.93,4.27Q282.38,257.25,282.35,291.69Z"/><path class="cls-3" d="M144.07,90.28H10.81c-4.53,0-5.18-.66-5.18-5.21q0-36,0-72c0-4.15.78-4.94,4.9-4.94H277.33c4.34,0,5,.71,5,5.07q0,36,0,72c0,4.36-.71,5.08-5,5.08Z"/><path class="cls-4" d="M106.56,333.85h89.39c3.74,0,3.74,0,3.74,3.62,0,3,0,6,0,9,0,1.42-.54,2.1-2,2-.65,0-1.31,0-2,0H17.52c-4,0-4,0-4-3.9,0-2.9,0-5.81,0-8.71,0-1.42.54-2.1,2-2,.75,0,1.5,0,2.25,0Z"/><path class="cls-4" d="M274.5,379.1a22.5,22.5,0,1,1-22.24-22.76A22.57,22.57,0,0,1,274.5,379.1Z"/><path class="cls-4" d="M32.43,305.16c5.06,0,10.12.08,15.17,0,2.69-.06,3.71,1.08,3.61,3.7-.12,3.37-.06,6.74,0,10.12,0,2.1-.94,3.09-3.05,3.09q-15.74,0-31.47,0c-2.27,0-3.21-1-3.18-3.26.06-3.37.09-6.75,0-10.12-.07-2.51,1-3.58,3.49-3.53C22.12,305.22,27.27,305.16,32.43,305.16Z"/><path class="cls-4" d="M106.61,149.35H17.23c-3.72,0-3.72,0-3.72-3.64,0-2.9.06-5.81,0-8.71-.05-1.7.6-2.44,2.3-2.28.56.05,1.12,0,1.69,0H195.68c4,0,4,0,4,3.92,0,2.9,0,5.81,0,8.71,0,1.44-.57,2.08-2,2-.75,0-1.5,0-2.25,0Z"/><path class="cls-4" d="M229.5,179.71A22.5,22.5,0,1,1,252,202.22,22.56,22.56,0,0,1,229.5,179.71Z"/><path class="cls-4" d="M32.31,122.91c-5.15,0-10.3,0-15.46,0-2.38,0-3.43-1-3.38-3.36q.11-5.06,0-10.12c-.05-2.34.86-3.45,3.3-3.44q15.6.07,31.19,0c2.24,0,3.26,1,3.23,3.21-.05,3.47-.07,6.93,0,10.4.05,2.43-1.09,3.33-3.43,3.3C42.62,122.86,37.47,122.91,32.31,122.91Z"/><path class="cls-4" d="M106.29,80.72H17.18c-3.67,0-3.67,0-3.68-3.68,0-2.72.14-5.44,0-8.15-.15-2.31.79-3.07,2.93-2.8a8.9,8.9,0,0,0,1.12,0H195.73c4,0,4,0,4,4,0,2.62-.14,5.26,0,7.87.16,2.31-.79,2.84-2.93,2.83-18.65-.07-37.29,0-55.94,0Z"/><path class="cls-4" d="M106.27,59.35H17.16c-3.66,0-3.66,0-3.66-3.7,0-2.62.17-5.26,0-7.87s.85-3.41,3.23-3.06a5.88,5.88,0,0,0,.84,0H195.74c3.94,0,3.94,0,3.94,4,0,2.53-.17,5.07,0,7.59s-.85,3.12-3.23,3.11c-19.86-.08-39.73,0-59.59,0Z"/><path class="cls-4" d="M32.47,32.91c-5.15,0-10.31-.06-15.46,0-2.5,0-3.61-.95-3.54-3.49.1-3.37.07-6.74,0-10.12,0-2.2.83-3.31,3.13-3.31q15.74,0,31.47,0c2.1,0,3.11.93,3.1,3,0,3.56,0,7.12,0,10.68,0,2.28-1.06,3.19-3.27,3.17C42.77,32.87,37.62,32.91,32.47,32.91Z"/><path class="cls-5" d="M.55.28H288a0,0,0,0,1,0,0V469.14a4.5,4.5,0,0,1-4.5,4.5H5.05a4.5,4.5,0,0,1-4.5-4.5V.28a0,0,0,0,1,0,0Z"/><rect class="cls-6" x="94.24" y="79.42" width="98.4" height="98.4" rx="4.55" ry="4.55"/><polygon class="cls-7" points="133.37 147.29 118.79 132.12 122.56 128.49 133.51 139.91 164.46 109.94 168.09 113.69 133.37 147.29"/></g></g></svg>