<svg xmlns="http://www.w3.org/2000/svg" viewBox="0 0 288.01 473.92"><defs><style>.cls-1{fill:#d5d9db;}.cls-1,.cls-5{stroke:#d7d8d8;stroke-width:0.56px;}.cls-1,.cls-5,.cls-6{stroke-miterlimit:10;}.cls-2{fill:#fefefe;}.cls-3{fill:#e0e8ed;}.cls-4{fill:#fbfcfc;}.cls-5,.cls-6{fill:#fff;}.cls-5{opacity:0.6;}.cls-6{stroke:#cdcdcd;stroke-width:1.69px;}.cls-7{fill:none;}</style></defs><title>trello-board-01</title><g id="Layer_2" data-name="Layer 2"><g id="GRID_Rectangle_4_Group_3_Group_1_Layer_3_Rectangle_1_copy_2_left_ESCOLHER_A_LISTA_DE_TAREFAS_Rectangle_1_copy_3_Rectangle_1_copy_4_Ellipse_1_Rectangle_1_copy_5_Rectangle_1_copy_10_" data-name="GRID + Rectangle 4 + Group 3 + Group 1 + Layer 3 + Rectangle 1 copy 2 + left + ESCOLHER A LISTA DE TAREFAS + Rectangle 1 copy 3 + Rectangle 1 copy 4 + Ellipse 1 + Rectangle 1 copy 5 + Rectangle 1 copy 10 "><path class="cls-1" d="M.28.28H287.73a0,0,0,0,1,0,0V469.14a4.5,4.5,0,0,1-4.5,4.5H4.78a4.5,4.5,0,0,1-4.5-4.5V.28a0,0,0,0,1,0,0Z"/><path class="cls-2" d="M282.11,196.6q0-57.37,0-114.75c-1.73-1.36-3.77-.91-5.7-.91q-132.68,0-265.36,0c-.94,0-1.87,0-2.81,0a4.23,4.23,0,0,0-2.88.9q0,57.37,0,114.75a4.5,4.5,0,0,0,4.5,4.5H277.61A4.5,4.5,0,0,0,282.11,196.6Z"/><path class="cls-2" d="M5.35,214q0,93,0,185.91a2.58,2.58,0,0,0,2.58,2.58q135.84-.09,271.69,0a2.58,2.58,0,0,0,2.58-2.58q-.05-93,0-185.91a4.5,4.5,0,0,0-4.5-4.5H9.85A4.5,4.5,0,0,0,5.35,214Z"/><path class="cls-3" d="M282.1,81.85H5.35V10.41A4.29,4.29,0,0,1,7,8.72H280.42a4.29,4.29,0,0,1,1.69,1.69Z"/><path class="cls-4" d="M7,8.72a3.54,3.54,0,0,1-1.69,1.69Q4.93,8.3,7,8.72Z"/><path class="cls-4" d="M282.1,10.41a3.54,3.54,0,0,1-1.69-1.69Q282.53,8.3,282.1,10.41Z"/><path class="cls-3" d="M106.49,124q44.84,0,89.68-.05c2.53,0,3.53.59,3.3,3.25a52.33,52.33,0,0,0,0,8.14c.18,2.49-.49,3.48-3.21,3.35-4.86-.23-9.74-.06-14.62-.06H16.9c-3.67,0-3.67,0-3.67-3.61q0-3.65,0-7.31c0-3.7,0-3.7,3.58-3.7h89.68Z"/><path class="cls-3" d="M106.19,259q-44.84,0-89.68,0c-2.47,0-3.57-.48-3.34-3.21a67.67,67.67,0,0,0,0-9c-.1-2,.7-2.73,2.6-2.48a8.87,8.87,0,0,0,1.12,0H195.71c3.7,0,3.7,0,3.71,3.58,0,2.81-.13,5.63,0,8.43.13,2.17-.71,2.67-2.75,2.66-16-.07-32,0-48.07,0Z"/><path class="cls-3" d="M106.34,280.41q-44.42,0-88.83,0c-4.88,0-4.23.55-4.27-4.41,0-2.62.09-5.25,0-7.87-.09-1.89.65-2.57,2.45-2.35a11.71,11.71,0,0,0,1.4,0H195.56c3.85,0,3.86,0,3.86,4,0,2.81-.08,5.63,0,8.43.07,1.76-.64,2.38-2.3,2.21a19.35,19.35,0,0,0-2,0Z"/><path class="cls-3" d="M106.34,341.16H17.23c-4.5,0-4,.43-4-4.13,0-2.72.09-5.44,0-8.15-.09-1.89.65-2.57,2.45-2.35a11.7,11.7,0,0,0,1.4,0H195.56c3.86,0,3.86,0,3.86,4,0,2.81-.08,5.63,0,8.43.07,1.76-.64,2.26-2.3,2.23-4.78-.08-9.56,0-14.34,0Z"/><path class="cls-3" d="M274.23,169.06a22.5,22.5,0,1,1-22.4-22.53A22.58,22.58,0,0,1,274.23,169.06Z"/><path class="cls-3" d="M251.74,394a22.5,22.5,0,1,1,22.49-22.44A22.56,22.56,0,0,1,251.74,394Z"/><path class="cls-3" d="M32,112.22c-5.15,0-10.29-.05-15.44,0-2.37,0-3.44-.9-3.38-3.31.08-3.46.07-6.92,0-10.38,0-2.25.92-3.23,3.19-3.22q15.72.06,31.44,0c2.1,0,3.11.89,3.09,3,0,3.55-.06,7.11,0,10.67,0,2.25-.92,3.24-3.19,3.22C42.51,112.18,37.27,112.22,32,112.22Z"/><path class="cls-3" d="M32.37,215.72c5,0,9.92.08,14.88,0,2.61-.06,3.81.85,3.7,3.57-.13,3.36-.08,6.74,0,10.1,0,2.23-.87,3.25-3.16,3.25q-15.72-.06-31.44,0c-2.08,0-3.14-.84-3.12-3q.05-5.47,0-10.95c0-2.17,1.08-3,3.15-3C21.7,215.75,27,215.72,32.37,215.72Z"/><path class="cls-3" d="M32,314.72c-5.15,0-10.29-.05-15.44,0-2.38,0-3.42-.94-3.36-3.34.09-3.46.07-6.92,0-10.38,0-2.26,1-3.2,3.21-3.19q15.72.06,31.44,0c2.11,0,3.09.92,3.07,3,0,3.55-.06,7.11,0,10.67,0,2.26-1,3.22-3.21,3.19C42.48,314.68,37.24,314.72,32,314.72Z"/><path class="cls-5 overlay" d="M.28.28H287.73a0,0,0,0,1,0,0V469.14a4.5,4.5,0,0,1-4.5,4.5H4.78a4.5,4.5,0,0,1-4.5-4.5V.28a0,0,0,0,1,0,0Z"/><rect class="cls-6 checkbox" x="93.97" y="79.42" width="98.4" height="98.4" rx="4.55" ry="4.55"/><polygon class="cls-7 check" points="133.1 147.29 118.52 132.12 122.29 128.49 133.24 139.91 164.19 109.94 167.82 113.69 133.1 147.29"/></g></g></svg>
