<svg xmlns="http://www.w3.org/2000/svg" viewBox="0 0 32 32"><defs></defs><title>trello</title><g id="Layer_2" data-name="Layer 2"><g id="Layer_1-2" data-name="Layer 1"><path d="M11,19V3a.48.48,0,0,0-.5-.5H3a.48.48,0,0,0-.5.5V19a.48.48,0,0,0,.5.5h7.5A.48.48,0,0,0,11,19Zm10.5-6V3a.48.48,0,0,0-.5-.5H13.5A.48.48,0,0,0,13,3V13a.48.48,0,0,0,.5.5H21a.48.48,0,0,0,.5-.5ZM24,1V23a1,1,0,0,1-1,1H1a1,1,0,0,1-.7-.3A1,1,0,0,1,0,23V1A1,1,0,0,1,.3.3,1,1,0,0,1,1,0H23a1,1,0,0,1,.7.3A1,1,0,0,1,24,1Z"/></g></g></svg>
